<?xml version="1.0" encoding="utf-8"?>
<!-- Generator: Adobe Illustrator 27.8.1, SVG Export Plug-In . SVG Version: 6.00 Build 0)  -->
<svg version="1.1" id="Capa_1" xmlns="http://www.w3.org/2000/svg" xmlns:xlink="http://www.w3.org/1999/xlink" x="0px" y="0px"
	 viewBox="0 0 708.7 259.4" style="enable-background:new 0 0 708.7 259.4;" xml:space="preserve">
<style type="text/css">
	.st0{fill:#185A7D;}
	.st1{fill:#00BDA4;}
	.st2{fill:#69D2C2;}
</style>
<path d="M600.1,232.2c9.5,0,14.6-6.9,14.6-14.9V201h-7.3v22c0,1-0.8,1.7-1.7,1.7h-11.2c-1,0-1.7-0.8-1.7-1.7v-22h-7.3v16.2
	C585.5,226.7,592,232.2,600.1,232.2"/>
<path d="M566.8,201h-17.3v14.9v15.6h7.3v-23.8h13.6c1,0,1.7,0.8,1.7,1.7v22h7.3v-17.9C579.5,206.6,573.8,201,566.8,201"/>
<path d="M638.5,200.9H623v6.9h17.1c0.9,0,1.5,0.7,1.5,1.6v3.8h-11.9c-4.8,0-9.2,3.4-9.2,9.6c0,5.1,5,9.5,11,9.5
	c5.1,0,10.1-3.3,10.1-7.5h-13.4c-1,0-1.8-0.8-1.8-1.8v-2.3c0-1,0.8-1.8,1.8-1.8h13.4v12.7h6.8v-20.7
	C648.4,205.4,644,200.9,638.5,200.9"/>
<path d="M682.3,206.1L682.3,206.1l-0.5-0.5c-2.8-2.9-6.6-4.6-10.7-4.6h-15v15.4v15.2h7.3v-23.7H677c1,0,1.7,0.8,1.7,1.7v6.3
	c0,0.1,0,0.1,0,0.1v15.6l0,0h3.7h3.7v-22c0-1,0.8-1.8,1.7-1.8h11.8c1,0,1.7,0.8,1.7,1.7v22h7.3v-17.9c0-5.8-4.2-12.6-13.7-12.6
	C686.9,201,683.6,204.6,682.3,206.1"/>
<rect x="514.9" y="214.9" transform="matrix(0.7071 -0.7071 0.7071 0.7071 0.6452 436.4495)" width="24.5" height="5.1"/>
<rect x="524.5" y="205.2" transform="matrix(0.7071 -0.7071 0.7071 0.7071 0.6073 436.4089)" width="5.1" height="24.5"/>
<g>
	<g>
		<path class="st0" d="M46.6,82.9v20.7H44c-0.4-4.1-1.6-7.6-3.5-10.3c-1.9-2.8-4.3-4.8-7.1-6c-2.8-1.3-5.8-1.9-9-1.9
			c-4.6,0-8.4,1.2-11.4,3.6s-4.5,5.6-4.5,9.7c0,3.7,1.1,6.9,3.3,9.7c2.2,2.8,5.3,5.5,9.4,8.1c4,2.6,8.1,5.2,12.3,7.7
			c4.1,2.5,7.5,5.1,10.2,7.8c3,3,5,5.8,6.1,8.6s1.7,5.8,1.7,9c0,3.5-0.7,6.7-2,9.8c-1.3,3-3.1,5.7-5.4,8c-2.3,2.3-5,4.1-8.1,5.4
			c-3.1,1.3-6.4,2-9.7,2c-2.7,0-5.2-0.3-7.4-0.9c-2.2-0.6-4.8-1.4-7.6-2.3c-2.8-1-4.6-1.5-5.2-1.5c-1.4,0-2.5,1.1-3.4,3.4H0v-23.9
			h2.6c0,5,1.2,9.2,3.5,12.4c2.3,3.3,5.1,5.6,8.5,7.1c3.3,1.5,6.4,2.2,9.3,2.2c3.6,0,6.7-0.6,9.3-1.9c2.6-1.3,4.7-3.1,6.2-5.5
			s2.3-5.2,2.3-8.4c0-3.5-1.2-6.8-3.5-9.7c-2.4-3-5.7-5.8-10-8.6s-8.2-5.3-11.7-7.5s-6.3-4.3-8.5-6.4c-5-5-7.5-11.2-7.5-18.5
			c0-4.5,1-8.4,3-11.9c2-3.4,4.9-6.1,8.6-8.1C15.8,83,19.9,82,24.5,82c2.8,0,5.1,0.2,7,0.7c1.9,0.5,3.9,1,5.9,1.7s3.5,1,4.4,1
			c0.7,0,1.2-0.1,1.4-0.4c0.3-0.3,0.5-1,0.8-2.1C44,82.9,46.6,82.9,46.6,82.9z"/>
		<path class="st0" d="M236.5,100.7v71.9H234l-62.5-76.9h-0.3v62c0,4.4,0.9,7.6,2.8,9.4c1.8,1.9,4.8,2.8,8.9,2.8v2.6H156V170
			c2.7,0,4.8-0.4,6.3-1.2s2.7-2.2,3.5-4.4c0.8-2.1,1.2-5.3,1.2-9.6v-51.7c0-5.3-0.9-9.2-2.8-11.8c-1.9-2.6-5.3-4.1-10.3-4.5v-2.6
			h22.7l55.3,68.9h0.3v-51.7c0-5.6-0.8-9.5-2.4-11.5c-1.6-2-4.4-3.1-8.4-3.1v-2.6H248v2.6c-4.3,0-7.2,1-8.9,3.1
			C237.4,91.8,236.5,95.5,236.5,100.7z"/>
		<path class="st0" d="M304.4,88.6v67.9c0,5.3,0.7,8.8,2,10.7s3.8,2.8,7.6,2.8v2.6h-31.4V170c2.3,0,4.1-0.3,5.6-1s2.6-2.1,3.4-4.2
			c0.8-2.1,1.2-5,1.2-8.8V88.6H280c-6,0-10.4,1-13.3,2.9c-2.8,1.9-4.4,5.2-4.8,9.8h-2.6V80.9h2.6c1.2,1.1,2.8,1.9,4.8,2.5
			c2.2,0.5,5,0.8,8.4,0.8h46.4c3.8,0,6.8-0.3,8.8-0.8c2.1-0.5,3.8-1.3,5.2-2.5h2.8v20.4h-1.7c-1-4.3-2.7-7.5-5.2-9.6
			s-7-3.1-13.5-3.1C317.9,88.6,304.4,88.6,304.4,88.6z"/>
		<path class="st0" d="M369.7,100.8v55.1c0,3.6,0.3,6.4,0.9,8.4s1.7,3.4,3.2,4.3c1.5,0.9,3.5,1.3,5.9,1.3v2.6H348V170
			c3.8,0,6.4-1,7.8-2.9c1.5-1.9,2.2-5.6,2.2-11.1v-55.1c0-5.5-0.7-9.3-2.1-11.2c-1.4-1.9-4-2.9-7.9-2.9v-2.6h31.8v2.6
			c-2.5,0-4.5,0.4-6,1.3s-2.5,2.3-3.1,4.3C370.1,94.4,369.7,97.2,369.7,100.8z"/>
		<g>
			<path class="st0" d="M465.6,167.8c-1.6-1.5-3.1-4.3-4.4-8.4l-25.6-76.1h-9.1L402,156.1c-1,3.1-2,5.5-2.9,7.3
				c-1,1.8-2.2,3.2-3.8,4.4c-1.6,1.1-3.7,1.9-6.4,2.2v2.6h22.8V170c-4.7-0.2-7.1-2.1-7.1-5.7c0-1.9,0.8-5.2,2.3-9.7l6-17.7l0,0
				l14-42.9h0.3l14.2,43l0,0l0,0l0,0l8,24.4c0.4,1.2,0.6,2.3,0.6,3.5c0,3.5-2.5,5.2-7.5,5.2v2.6h31.1V170
				C469.9,170,467.2,169.2,465.6,167.8z"/>
			<polygon class="st0" points="413,136.8 413,136.8 413,136.8 			"/>
		</g>
		<g>
			<path class="st0" d="M137.6,167.8c-1.6-1.5-3.1-4.3-4.4-8.4l-25.6-76.1h-9.1L74,156.1c-1,3.1-2,5.5-2.9,7.3
				c-1,1.8-2.2,3.2-3.8,4.4c-1.6,1.1-3.7,1.9-6.4,2.2v2.6h22.8V170c-4.7-0.2-7.1-2.1-7.1-5.7c0-1.9,0.8-5.2,2.3-9.7l6-17.7l0,0
				l14-42.9h0.3l14.2,43l0,0l0,0l0,0l8,24.4c0.4,1.2,0.6,2.3,0.6,3.5c0,3.5-2.5,5.2-7.5,5.2v2.6h31.1V170
				C141.9,170,139.2,169.2,137.6,167.8z"/>
			<polygon class="st0" points="85,136.8 85,136.8 85,136.8 			"/>
		</g>
	</g>
	<path class="st0" d="M516,120.6v19.8h29.4c-3.7,9.2-12,14.5-22.8,14.5c-14,0-24.2-11.2-24.2-26.7c0-7.3,2.6-14.1,7.2-19
		c4.7-5,11.3-7.7,18.6-7.7c10,0,16.3,5.9,19.7,10.8l1.8,2.6l15.9-12.3l-1.7-2.3c-8.9-12.1-21.2-18.5-35.6-18.5
		c-13,0-24.9,4.9-33.5,13.8c-8.3,8.6-12.9,20.2-12.9,32.7c0,26.1,19.7,46.5,44.8,46.5c27.8,0,45.8-20.1,45.8-51.1v-3H516V120.6z"/>
	<g>
		<path class="st1" d="M18.1,25.9h9c1.1,0,2.2,0.1,3.1,0.4c1,0.3,1.8,0.7,2.5,1.2s1.2,1.2,1.7,2c0.4,0.8,0.6,1.8,0.6,2.9
			c0,1.5-0.4,2.7-1.2,3.7c-0.8,0.9-1.9,1.6-3.2,2.1v0.1c0.8,0,1.5,0.3,2.2,0.6c0.7,0.4,1.3,0.8,1.8,1.4c0.5,0.6,0.9,1.2,1.2,2
			s0.4,1.6,0.4,2.5c0,1.2-0.2,2.2-0.7,3.1c-0.5,0.9-1.1,1.6-2,2.3c-0.8,0.6-1.8,1.1-2.9,1.4c-1.1,0.3-2.3,0.5-3.6,0.5h-8.9V25.9z
			 M21.6,36.7h4.8c0.7,0,1.3-0.1,1.9-0.2c0.6-0.1,1.1-0.4,1.5-0.7s0.8-0.7,1-1.2c0.3-0.5,0.4-1.1,0.4-1.8c0-1-0.3-1.9-1-2.7
			c-0.7-0.8-1.7-1.1-3.1-1.1h-5.5V36.7z M21.6,48.8h5.2c0.5,0,1.1-0.1,1.8-0.2c0.6-0.1,1.3-0.3,1.8-0.7c0.6-0.3,1-0.8,1.4-1.3
			c0.4-0.6,0.6-1.3,0.6-2.2c0-1.5-0.5-2.7-1.5-3.5s-2.4-1.2-4.1-1.2h-5.2C21.6,39.7,21.6,48.8,21.6,48.8z"/>
		<path class="st1" d="M100.5,52.6c-2,0-3.8-0.3-5.5-1s-3.1-1.7-4.3-2.9c-1.2-1.2-2.1-2.7-2.8-4.3c-0.7-1.7-1-3.5-1-5.4
			s0.3-3.7,1-5.4s1.6-3.1,2.8-4.3c1.2-1.2,2.6-2.2,4.3-2.9c1.7-0.7,3.5-1,5.5-1s3.8,0.3,5.5,1s3.1,1.7,4.3,2.9
			c1.2,1.2,2.1,2.7,2.8,4.3c0.7,1.7,1,3.5,1,5.4s-0.3,3.7-1,5.4s-1.6,3.1-2.8,4.3c-1.2,1.2-2.6,2.2-4.3,2.9
			C104.3,52.2,102.4,52.6,100.5,52.6z M100.5,49.3c1.5,0,2.8-0.3,4-0.8c1.2-0.6,2.2-1.3,3.1-2.2s1.5-2,2-3.3s0.7-2.6,0.7-4
			s-0.2-2.8-0.7-4c-0.5-1.3-1.1-2.4-2-3.3c-0.9-0.9-1.9-1.7-3.1-2.2c-1.2-0.6-2.5-0.8-4-0.8s-2.8,0.3-4,0.8
			c-1.2,0.6-2.2,1.3-3.1,2.2s-1.5,2-2,3.3s-0.7,2.6-0.7,4s0.2,2.8,0.7,4c0.5,1.3,1.1,2.4,2,3.3c0.9,0.9,1.9,1.7,3.1,2.2
			C97.6,49,99,49.3,100.5,49.3z"/>
		<path class="st1" d="M166.4,25.9h3.5v22.7h11.9v3.3h-15.5v-26H166.4z"/>
		<path class="st1" d="M233.5,46.5c0.6,1,1.5,1.7,2.4,2.1c1,0.5,2,0.7,3.1,0.7c0.6,0,1.2-0.1,1.8-0.3s1.2-0.5,1.7-0.8
			c0.5-0.4,0.9-0.8,1.2-1.4c0.3-0.5,0.5-1.2,0.5-1.9c0-1-0.3-1.8-1-2.3c-0.6-0.5-1.4-1-2.4-1.3c-0.9-0.4-2-0.7-3.1-1
			s-2.1-0.8-3.1-1.4c-0.9-0.6-1.7-1.4-2.4-2.4c-0.6-1-1-2.3-1-4c0-0.8,0.2-1.6,0.5-2.4c0.3-0.9,0.9-1.6,1.6-2.4
			c0.7-0.7,1.6-1.3,2.7-1.8c1.1-0.5,2.5-0.7,4-0.7c1.4,0,2.8,0.2,4.1,0.6s2.4,1.2,3.4,2.4l-2.9,2.6c-0.4-0.7-1.1-1.2-1.9-1.7
			c-0.8-0.4-1.7-0.6-2.8-0.6c-1,0-1.8,0.1-2.4,0.4c-0.6,0.3-1.2,0.6-1.6,1c-0.4,0.4-0.7,0.8-0.8,1.3c-0.2,0.5-0.2,0.9-0.2,1.3
			c0,1.1,0.3,1.9,1,2.5c0.6,0.6,1.4,1.1,2.4,1.4c0.9,0.4,2,0.7,3.1,1s2.1,0.7,3.1,1.2c0.9,0.5,1.7,1.2,2.4,2.1c0.6,0.9,1,2.1,1,3.7
			c0,1.2-0.2,2.4-0.7,3.4s-1.1,1.8-1.9,2.5c-0.8,0.7-1.8,1.2-2.9,1.6c-1.1,0.4-2.3,0.6-3.5,0.6c-1.7,0-3.2-0.3-4.7-0.9
			c-1.5-0.6-2.7-1.5-3.6-2.7L233.5,46.5z"/>
		<path class="st1" d="M308.6,25.9h3.2l11.1,26h-4.1l-2.6-6.4h-12.4l-2.6,6.4h-4.1L308.6,25.9z M314.9,42.4L310,30.5l0,0l-5,11.9
			H314.9z"/>
	</g>
	<g>
		<polygon class="st2" points="668.6,101.2 681.5,118.3 708.7,82.5 683.3,82.5 		"/>
	</g>
	<polygon class="st0" points="669,154.6 681.5,137.9 708.2,174 683.3,174 	"/>
	<g>
		<path class="st0" d="M622.5,154.9c-7,0-13.5-2.8-18.2-7.8c-4.6-5-7.2-11.7-7.2-18.9s2.6-13.9,7.2-18.9c4.7-5,11.2-7.8,18.2-7.8
			c1.1,0,2.3,0.1,3.4,0.2l6.9,0.9L618,82.5h-3.7c-10.3,1.8-19.7,7.2-26.6,15.2c-7.2,8.4-11.2,19.3-11.2,30.6s4,22.2,11.2,30.6
			c7,8.1,16.5,13.5,27,15.2h3.2l14.7-20.2l-6.9,0.9C624.7,154.8,623.6,154.9,622.5,154.9z"/>
	</g>
	<g>
		<polygon class="st1" points="670.8,123.2 662.8,112.6 648,93 640,82.5 614.3,82.5 616.3,85.2 626.3,98.8 647.8,128 626.2,157.6 
			616.3,171.3 614.3,174 639.2,174 640.3,172.5 646.2,164.7 663.7,141.3 669.8,133.1 674,127.4 		"/>
	</g>
</g>
</svg>
